<?xml version="1.0" encoding="UTF-8"?>
<svg version="1.1" xmlns="http://www.w3.org/2000/svg" width="2252" height="1000">
<path d="M0 0 C7.25723473 0.59485531 7.25723473 0.59485531 10.0625 2.125 C11.55829746 5.11659491 10.80103624 7.88104861 10 11 C8.64054913 14.40463921 7.01866783 17.66228578 5.375 20.9375 C0.96671816 29.84332795 -3.06431766 38.87806473 -7 48 C-5.15776855 47.6146106 -5.15776855 47.6146106 -3.27832031 47.22143555 C1.38002046 46.24850077 6.03988759 45.28304511 10.70019531 44.31958008 C12.6979995 43.90552988 14.6954121 43.48958474 16.69238281 43.0715332 C42.68475689 37.63355162 68.49243876 32.41215286 95 37 C95.928125 37.144375 96.85625 37.28875 97.8125 37.4375 C100.25 37.875 100.25 37.875 104 39 C105.234375 41.0703125 105.234375 41.0703125 106 43 C102.46433468 47.49848425 98.65989496 48.18474996 93.32421875 49.32421875 C92.4808345 49.51595169 91.63745026 49.70768463 90.76850891 49.90522766 C88.07771215 50.51307662 85.38284197 51.10017408 82.6875 51.6875 C80.8857784 52.0931181 79.08434218 52.50000602 77.28320312 52.90820312 C70.20770209 54.49664423 63.19618097 56.068504 56 57 C55.67 56.01 55.34 55.02 55 54 C58.93447709 52.49198432 62.87304977 50.99497086 66.8125 49.5 C67.93205078 49.07074219 69.05160156 48.64148438 70.20507812 48.19921875 C71.27822266 47.79316406 72.35136719 47.38710938 73.45703125 46.96875 C74.9416687 46.40317383 74.9416687 46.40317383 76.45629883 45.82617188 C79 45 79 45 82 45 C82 44.34 82 43.68 82 43 C51.06006089 45.23514159 21.15370696 51.2309344 -8.95751953 58.56030273 C-11 59 -11 59 -13 59 C-13.09079834 59.65250732 -13.18159668 60.30501465 -13.27514648 60.97729492 C-14.24231107 65.01045918 -15.8909639 68.59347477 -17.59765625 72.36328125 C-18.12823891 73.55125557 -18.12823891 73.55125557 -18.66954041 74.76322937 C-19.79573708 77.28183047 -20.92900556 79.79717607 -22.0625 82.3125 C-22.8292454 84.02387833 -23.59552674 85.73546466 -24.36132812 87.44726562 C-26.23551733 91.6339393 -28.11605351 95.81770845 -30 100 C-24.07701071 99.32924149 -18.15460522 98.65359996 -12.23266602 97.97363281 C-10.22239877 97.74348276 -8.21198421 97.51461541 -6.20141602 97.28710938 C8.97208736 95.62897684 8.97208736 95.62897684 24 93 C23.50145508 92.62609131 23.00291016 92.25218262 22.48925781 91.86694336 C21.30013021 90.97509766 20.1110026 90.08325195 18.921875 89.19140625 C16.93707244 87.96099003 15.28012345 87.43887332 13 87 C13 87.66 13 88.32 13 89 C12.01 88.67 11.02 88.34 10 88 C10.75 86.0625 10.75 86.0625 12 84 C14.57974994 82.88627536 15.70230142 82.89241586 18.3671875 83.85546875 C19.19476562 84.29503906 20.02234375 84.73460937 20.875 85.1875 C21.69742187 85.61417969 22.51984375 86.04085937 23.3671875 86.48046875 C26 88 26 88 28.43359375 90.28515625 C34.30799323 93.10975797 39.93074137 91.34359719 46.1875 90.25 C69.57805476 86.38536984 69.57805476 86.38536984 75 90 C75.6875 92.3125 75.6875 92.3125 75 95 C69.57449613 99.99270014 61.74199163 102.35938661 55 105 C54.67 103.68 54.34 102.36 54 101 C55.98 99.68 57.96 98.36 60 97 C54.06 97.99 48.12 98.98 42 100 C56.31990757 110.57720446 71.4552252 119.76432039 86.625 129.0625 C87.71981689 129.73466553 88.81463379 130.40683105 89.94262695 131.09936523 C92.14083282 132.44567911 94.34248654 133.78638021 96.54760742 135.12133789 C101.65980689 138.2344993 106.6509837 141.40567976 111.48828125 144.93359375 C122.63119915 153.17187123 122.63119915 153.17187123 136.02587891 154.16040039 C137.49977384 153.91744882 138.97172918 153.66253494 140.44189453 153.39794922 C145.73460433 152.57459391 151.09668718 152.35140274 156.4375 152 C157.62867432 151.91371338 158.81984863 151.82742676 160.04711914 151.73852539 C168.33960213 151.14179585 176.62987668 150.69548112 184.9375 150.375 C185.959646 150.33503906 186.98179199 150.29507813 188.03491211 150.25390625 C200.1417698 149.82719804 212.10359413 149.98285488 224.1875 150.875 C225.39986328 150.95363281 226.61222656 151.03226563 227.86132812 151.11328125 C229.01439453 151.19707031 230.16746094 151.28085937 231.35546875 151.3671875 C232.39340576 151.44050293 233.43134277 151.51381836 234.50073242 151.58935547 C237 152 237 152 239 154 C238.44444444 158.55555556 238.44444444 158.55555556 237 160 C235.40669591 160.01846572 233.81250346 159.9650619 232.22119141 159.88330078 C231.19907562 159.83551483 230.17695984 159.78772888 229.12387085 159.73849487 C228.00275909 159.68299469 226.88164734 159.62749451 225.7265625 159.5703125 C212.47670827 158.98837423 199.25292311 158.84623416 185.99169922 158.86962891 C182.34208119 158.87504889 178.69258339 158.86960809 175.04296875 158.86328125 C155.28454875 157.96951009 155.28454875 157.96951009 136 161 C136.87140625 161.61746094 137.7428125 162.23492187 138.640625 162.87109375 C154.34946815 174.02854838 169.73397453 185.57842864 184.39306641 198.08984375 C188.27847951 201.40362891 192.22686804 204.61981477 196.23046875 207.7890625 C198.37155693 209.4983092 200.49644747 211.22205098 202.61328125 212.9609375 C209.30687475 218.45341434 216.04180052 223.84530286 223 229 C230.58286421 234.6193858 237.90531177 240.52131888 245.18847656 246.52197266 C246.86869821 247.89287048 248.56512963 249.23858481 250.2734375 250.57421875 C255.45315443 254.66383439 259.52372137 258.36603119 263 264 C262.34 265.32 261.68 266.64 261 268 C257.16179862 267.46012112 255.8232696 265.96804166 253.4375 263 C249.26932949 258.13585974 244.67623339 254.26091985 239.65136719 250.31005859 C237.81801961 248.85563176 236.00561676 247.37753611 234.1953125 245.89453125 C227.9250305 240.7585678 221.63219547 235.6660712 215.1875 230.75 C209.34897696 226.2937167 203.66080257 221.67882661 198 217 C196.16748108 215.49900516 194.33414331 213.99900948 192.5 212.5 C189.79478066 210.28768079 187.09046562 208.07434973 184.390625 205.85546875 C181.59913254 203.56363693 178.80090558 201.28031841 176 199 C175.18885742 198.33726074 175.18885742 198.33726074 174.36132812 197.66113281 C164.58045856 189.68433965 154.55822563 182.08524632 144.31933594 174.70605469 C142.08202838 173.06033835 139.9025706 171.35840214 137.7265625 169.6328125 C136.38068362 168.60875005 135.03435318 167.58528071 133.6875 166.5625 C133.11523682 166.08353271 132.54297363 165.60456543 131.95336914 165.11108398 C123.9259871 159.18635093 111.88995608 162.89117882 102.6738739 164.25498962 C101.59426895 164.42092117 100.514664 164.58685272 99.40234375 164.7578125 C98.21055008 164.93748062 97.01875641 165.11714874 95.79084778 165.30226135 C92.52418412 165.79803582 89.25853856 166.29984911 85.99351501 166.80630112 C83.9151155 167.12846978 81.83642364 167.44869945 79.75769043 167.76870728 C54.03006601 171.73817968 28.38336851 176.15296241 2.75 180.6875 C1.86356182 180.84413368 0.97712364 181.00076736 0.0638237 181.16214752 C-10.95397424 183.10974535 -21.96671305 185.08368953 -32.97436523 187.08782959 C-36.421396 187.71493611 -39.86954905 188.33535558 -43.31860352 188.95123291 C-47.67501074 189.72945402 -52.02912723 190.51945749 -56.38185883 191.31797218 C-58.01902357 191.61636644 -59.65692467 191.91075159 -61.29557037 192.20090294 C-63.54785887 192.60052653 -65.79696976 193.0148035 -68.04589844 193.43286133 C-69.32092224 193.66387039 -70.59594604 193.89487946 -71.90960693 194.13288879 C-75.82914377 195.2326435 -77.11128348 196.54773875 -79.17236328 199.91577148 C-79.55118652 200.64352783 -79.93000977 201.37128418 -80.3203125 202.12109375 C-80.98619385 203.37901733 -80.98619385 203.37901733 -81.66552734 204.66235352 C-82.14715332 205.57815186 -82.6287793 206.4939502 -83.125 207.4375 C-97.58203293 234.39163425 -114.22952526 260.09563479 -132.33496094 284.73339844 C-134.07507643 287.10220082 -135.80729676 289.47665055 -137.5390625 291.8515625 C-144.09139976 300.81543099 -150.76574212 309.65793587 -157.68212891 318.34375 C-159.92244584 321.15929466 -162.14977581 323.98501971 -164.375 326.8125 C-164.81948486 327.37686768 -165.26396973 327.94123535 -165.72192383 328.52270508 C-170.03757826 334.01807925 -174.27584104 339.57212936 -178.49755859 345.13989258 C-179.98881452 347.10087776 -181.49017304 349.05328586 -183 351 C-183.46156494 351.59876953 -183.92312988 352.19753906 -184.39868164 352.81445312 C-187.68157932 356.94075894 -187.68157932 356.94075894 -190.6875 357.5 C-193 357 -193 357 -195 355 C-194.84304462 348.87874004 -191.60822854 343.40894628 -189 338 C-188.01 338 -187.02 338 -186 338 C-185.505 339.485 -185.505 339.485 -185 341 C-184.39865234 340.30777344 -184.39865234 340.30777344 -183.78515625 339.6015625 C-177.62759737 332.53642691 -171.37583057 325.56031121 -165.00756836 318.68432617 C-131.45908086 282.36333432 -105.84536608 239.63323025 -83 196 C-83.70133057 196.16943115 -84.40266113 196.3388623 -85.12524414 196.51342773 C-94.61481977 198.75810468 -104.15803524 200.67159555 -113.72875977 202.53442383 C-116.43004553 203.06104673 -119.13007162 203.59381521 -121.83007812 204.12695312 C-158.40073833 211.29963083 -158.40073833 211.29963083 -165 208 C-164.49202991 203.6822542 -163.80317221 199.96697886 -162 196 C-161.34 196 -160.68 196 -160 196 C-160 198.31 -160 200.62 -160 203 C-159.09791809 202.7487738 -158.19583618 202.49754761 -157.26641846 202.2387085 C-148.04652575 199.71893189 -138.80153193 197.61717266 -129.421875 195.765625 C-127.99311683 195.48021683 -126.5644276 195.19446335 -125.13580322 194.90838623 C-122.17852839 194.31725803 -119.2206388 193.72935288 -116.26220703 193.14404297 C-112.47173804 192.3939735 -108.68270034 191.63693789 -104.89405441 190.87771988 C-101.96061381 190.29041904 -99.02659879 189.70603314 -96.09238434 189.122612 C-94.69358828 188.84425614 -93.29494042 188.56515445 -91.89644623 188.28528595 C-89.95464673 187.89728493 -88.01200972 187.51348241 -86.06933594 187.12988281 C-84.96652283 186.91100403 -83.86370972 186.69212524 -82.72747803 186.46661377 C-80 186 -80 186 -77 186 C-76.63225464 184.77337646 -76.63225464 184.77337646 -76.25708008 183.52197266 C-74.77612902 179.37277865 -72.88880375 175.566043 -70.88671875 171.6484375 C-70.04776142 169.98783851 -69.20889799 168.32719207 -68.37011719 166.66650391 C-67.93163452 165.80196594 -67.49315186 164.93742798 -67.04138184 164.04669189 C-60.25786352 150.66039005 -53.56532122 137.23923836 -47.25 123.625 C-46.70819092 122.46274902 -46.16638184 121.30049805 -45.6081543 120.10302734 C-43.05451468 115.2412395 -43.05451468 115.2412395 -42 110 C-54.86696173 112.38277069 -65.9849282 114.78291862 -75 125 C-76.25 123.4375 -76.25 123.4375 -77 121 C-74.15253574 114.01076953 -69.34356167 110.15359172 -62.66796875 106.84375 C-54.15669994 103.39217555 -45.03339731 102.31178047 -36 101 C-35.65324219 99.84628906 -35.30648438 98.69257813 -34.94921875 97.50390625 C-32.47621777 90.0849033 -29.06506397 83.03835047 -25.8125 75.9375 C-25.15127953 74.48521409 -24.49046882 73.03274154 -23.83007812 71.58007812 C-22.22476912 68.05121549 -20.61393292 64.52492629 -19 61 C-19.62766266 61.14145447 -20.25532532 61.28290894 -20.90200806 61.4286499 C-27.55439352 62.92693154 -34.20820039 64.41877926 -40.86279297 65.90722656 C-43.33189796 66.46033172 -45.80066043 67.01496862 -48.26904297 67.57128906 C-63.7922145 71.06857944 -79.3163146 74.30609167 -95 77 C-91.7 77.33 -88.4 77.66 -85 78 C-85 78.99 -85 79.98 -85 81 C-101.80922804 81.58410445 -101.80922804 81.58410445 -107 78 C-108.125 75.5 -108.125 75.5 -108 73 C-106.22602807 70.38462332 -104.87801721 69.96631527 -101.796875 69.11547852 C-100.45007776 68.85836403 -99.10085285 68.61378334 -97.75 68.37890625 C-96.20012132 68.08844795 -94.65032062 67.7975733 -93.10058594 67.50634766 C-92.27200073 67.35450012 -91.44341553 67.20265259 -90.58972168 67.04620361 C-87.96106221 66.55522727 -85.34034737 66.03360435 -82.71972656 65.50146484 C-74.59804006 63.85474601 -66.48363979 62.22717165 -58.30664062 60.87548828 C-30.62443917 57.99071324 -30.62443917 57.99071324 -8.37890625 44.0078125 C-5.51041446 38.6032582 -3.94832326 33.07351149 -2.73046875 27.09863281 C-1.65239412 22.5254633 0.40988716 18.70067705 2.6875 14.625 C5.39352755 9.52317308 5.39352755 9.52317308 7 4 C4.36 3.67 1.72 3.34 -1 3 C-0.67 2.01 -0.34 1.02 0 0 Z M23.1953125 101.76953125 C22.06915527 101.93477295 20.94299805 102.10001465 19.78271484 102.27026367 C17.972146 102.53867065 17.972146 102.53867065 16.125 102.8125 C3.50325268 104.63193128 -9.1228706 105.96144735 -21.82763672 107.0480957 C-23.11428223 107.15984131 -24.40092773 107.27158691 -25.7265625 107.38671875 C-27.43706787 107.52920044 -27.43706787 107.52920044 -29.18212891 107.67456055 C-32.07506004 107.91096528 -32.07506004 107.91096528 -35 109 C-36.41717645 111.53448492 -37.65351674 114.01551738 -38.8515625 116.65234375 C-39.22337646 117.44752914 -39.59519043 118.24271454 -39.97827148 119.06199646 C-40.78243196 120.78375852 -41.58208 122.50763368 -42.37774658 124.2333374 C-44.4803264 128.791928 -46.61614375 133.33489294 -48.75 137.87890625 C-49.18390045 138.80477539 -49.6178009 139.73064453 -50.06484985 140.68457031 C-54.43779114 149.98877827 -59.00322034 159.19238916 -63.625 168.375 C-63.99393372 169.10886932 -64.36286743 169.84273865 -64.74298096 170.59884644 C-66.823215 174.73532394 -68.9100478 178.8684225 -71 183 C-71.495 183.99 -71.495 183.99 -72 185 C-71.39905518 184.8956665 -70.79811035 184.79133301 -70.17895508 184.68383789 C-65.08518683 183.80050656 -59.99076349 182.92115287 -54.89538574 182.04714966 C-54.18096313 181.92459808 -53.46654053 181.80204651 -52.73046875 181.67578125 C-51.98059692 181.54718719 -51.2307251 181.41859314 -50.45812988 181.28610229 C-46.11731882 180.54030038 -41.77791901 179.78702115 -37.43994141 179.02490234 C-10.91204671 174.36521252 15.64756029 170.04373696 42.3125 166.25 C43.31296671 166.10759195 43.31296671 166.10759195 44.33364487 165.96230698 C63.40505744 163.25173463 82.49293732 160.6828338 101.63208008 158.49511719 C102.38864899 158.40606613 103.1452179 158.31701508 103.92471313 158.2252655 C105.90708318 157.99229797 107.89039525 157.76738384 109.8737793 157.54321289 C112.67462236 157.0565377 114.58302085 156.44853073 117 155 C107.12182897 148.51138173 97.21296744 142.09580023 87.125 135.9375 C78.07213414 130.38967123 69.20909242 124.57467858 60.375 118.6875 C59.73983459 118.26516083 59.10466919 117.84282166 58.45025635 117.40768433 C56.59763436 116.17451424 54.74746223 114.93777502 52.8984375 113.69921875 C52.3079361 113.30492172 51.71743469 112.91062469 51.10903931 112.50437927 C46.40971099 109.34035056 41.91726866 105.94188189 37.48681641 102.40942383 C32.92806043 99.82571106 28.18896174 101.01280575 23.1953125 101.76953125 Z " fill="#C1C1C1" transform="translate(1217,248)"/>
<path d="M0 0 C4.89527085 3.70853852 5.37576894 10.60248733 6.25 16.3125 C10.59003341 52.61729305 5.42328612 93.07732022 -2.9375 128.5625 C-1.95136719 128.19898438 -0.96523437 127.83546875 0.05078125 127.4609375 C20.51149691 120.15266171 41.83799337 116.48118084 63.1875 112.8125 C64.04932892 112.66370392 64.91115784 112.51490784 65.79910278 112.36160278 C77.18842601 110.4067544 88.57204373 108.79235967 100.0625 107.5625 C99.63383248 102.97723354 99.20152458 98.39243215 98.7578125 93.80859375 C98.37759485 89.87192239 98.00329076 85.93481403 97.63964844 81.99658203 C97.48202537 50.86649241 97.48202537 50.86649241 89.0625 23.5625 C88.0725 26.5325 87.0825 29.5025 86.0625 32.5625 C85.4025 32.2325 84.7425 31.9025 84.0625 31.5625 C84.34734846 29.83219709 84.64069938 28.10329286 84.9375 26.375 C85.18113281 24.93060547 85.18113281 24.93060547 85.4296875 23.45703125 C86.04289517 20.65217396 86.91916343 18.19025253 88.0625 15.5625 C90.43359375 15.796875 90.43359375 15.796875 93.0625 16.5625 C107.01040065 36.70451627 106.22500666 82.96310451 106.0625 106.5625 C106.79912872 106.43852844 107.53575745 106.31455688 108.29470825 106.18682861 C127.1125874 103.02431491 145.94114342 99.93697367 164.79052734 96.96777344 C167.5809059 96.52783776 170.37054376 96.08356025 173.15966797 95.63574219 C203.02955835 90.84289209 203.02955835 90.84289209 216.0625 90.5625 C215.4025 88.9125 214.7425 87.2625 214.0625 85.5625 C219.72354589 86.05908297 223.93924471 87.10760684 229.0625 89.5625 C228.7325 91.2125 228.4025 92.8625 228.0625 94.5625 C219.67150979 97.65757019 211.02602567 98.67332781 202.21112061 99.78265381 C178.8355444 102.73439984 155.56532395 106.34551524 132.28774738 109.97347164 C129.49594394 110.4084617 126.70401307 110.8426315 123.91209602 111.27689171 C121.96627926 111.58023306 120.02078718 111.88565482 118.07530212 112.19111633 C116.91462723 112.37216415 115.75395233 112.55321198 114.55810547 112.73974609 C113.54054169 112.89929779 112.52297791 113.05884949 111.47457886 113.22323608 C109.0625 113.5625 109.0625 113.5625 107.0625 113.5625 C107.54834313 121.64977932 108.03528853 129.73699132 108.52348137 137.8241291 C108.75036509 141.58308101 108.97692801 145.34205156 109.20263672 149.10107422 C110.41338312 169.26029214 111.69017697 189.41357884 113.0625 209.5625 C114.25472168 209.32160645 115.44694336 209.08071289 116.67529297 208.83251953 C137.1770929 204.73816791 137.1770929 204.73816791 144.6875 209.5625 C148.04314516 212.38830645 148.04314516 212.38830645 148.5 216.5 C148.21416747 231.62530475 128.90911693 247.138458 119.0625 257.5625 C118.52367187 257.94237061 117.98484375 258.32224121 117.4296875 258.71362305 C115.18856599 261.74433969 115.64233126 265.19669463 115.65625 268.82421875 C115.63999573 270.05939995 115.63999573 270.05939995 115.62341309 271.3195343 C115.58913185 273.96310067 115.57358899 276.6062409 115.5625 279.25 C115.41046093 314.55281046 115.41046093 314.55281046 107.0625 323.5625 C103.93329861 325.64863426 101.97030202 326.17377102 98.22680664 326.05932617 C90.19384507 324.21532428 84.97131054 314.57607451 80.8125 308.1875 C79.50105059 306.22065325 78.18853841 304.25451475 76.875 302.2890625 C76.23175781 301.32000977 75.58851562 300.35095703 74.92578125 299.35253906 C64.37572646 283.55510377 53.2213585 266.98857015 39.3125 253.91796875 C38.0625 252.5625 38.0625 252.5625 38.0625 250.5625 C37.505625 250.315 36.94875 250.0675 36.375 249.8125 C34.0625 248.5625 34.0625 248.5625 31.6875 246.625 C29.09858136 244.42708253 29.09858136 244.42708253 25.8125 243.0625 C23.0625 241.5625 23.0625 241.5625 22.0625 239.5 C22.0625 237.5625 22.0625 237.5625 24.0625 235.5625 C26.08777918 235.05086959 28.13485217 234.62432528 30.18823242 234.24072266 C38.31988993 232.58579367 46.1493615 230.21737527 54.05078125 227.7109375 C55.53038717 227.24633152 57.01014178 226.7821988 58.49003601 226.31851196 C61.55767608 225.3559051 64.623958 224.3891323 67.68920898 223.41894531 C71.62361235 222.17381196 75.56063716 220.93721985 79.49859333 219.70337486 C82.53872092 218.75025523 85.5778174 217.79388482 88.61656761 216.83638382 C90.06965877 216.37871398 91.52298789 215.92179894 92.97655678 215.46564865 C94.99229972 214.83229838 97.00670029 214.19485716 99.02075195 213.55615234 C100.16655228 213.19435883 101.3123526 212.83256531 102.49287415 212.45980835 C104.96425914 211.80556065 104.96425914 211.80556065 106.0625 210.5625 C105.9771662 207.57479994 105.82428799 204.61739805 105.62524414 201.63647461 C105.56686874 200.69998581 105.50849335 199.76349701 105.448349 198.79862976 C105.2531306 195.68702845 105.05040728 192.57596258 104.84765625 189.46484375 C104.7112454 187.31395837 104.57530023 185.16304341 104.43980408 183.01210022 C104.08113151 177.33838941 103.71610534 171.66510428 103.34979248 165.99188232 C102.97743285 160.20772084 102.61103113 154.42318239 102.24414062 148.63867188 C101.52278586 137.27956916 100.79472412 125.92090688 100.0625 114.5625 C92.60868185 115.75496931 85.156089 116.95487521 77.70481586 118.16314125 C74.24115732 118.72457814 70.77718688 119.2838682 67.31225586 119.83740234 C52.60788876 122.18830139 37.94759129 124.67034214 23.35546875 127.6484375 C22.20621414 127.88019684 21.05695953 128.11195618 19.87287903 128.35073853 C12.98710472 129.79190385 6.32653423 131.61906158 -0.36576843 133.78994751 C-2.9375 134.5625 -2.9375 134.5625 -4.9375 134.5625 C-5.03804687 135.79355469 -5.13859375 137.02460938 -5.2421875 138.29296875 C-5.91683026 144.31421419 -7.45962929 150.04303984 -9.0625 155.875 C-9.53490112 157.59577759 -9.53490112 157.59577759 -10.0168457 159.35131836 C-16.38179867 182.15311572 -24.54381093 209.09007312 -39.9375 227.5625 C-42.03125 228.5 -42.03125 228.5 -43.9375 228.5625 C-45.9375 226.5625 -45.9375 226.5625 -46.375 224.453125 C-45.71095147 220.06566152 -43.34579108 216.97744468 -40.9375 213.3125 C-35.48120334 204.69100661 -30.94585296 195.93816318 -26.9375 186.5625 C-26.17373047 184.79712891 -26.17373047 184.79712891 -25.39453125 182.99609375 C-20.23509307 170.17357582 -17.09798967 156.65913524 -13.69018555 143.28955078 C-12.9375 140.5625 -12.9375 140.5625 -11.9375 138.5625 C-14.9075 139.5525 -14.9075 139.5525 -17.9375 140.5625 C-18.5975 139.5725 -19.2575 138.5825 -19.9375 137.5625 C-13.1875 133.5625 -13.1875 133.5625 -10.9375 133.5625 C4.44161467 68.77006622 4.44161467 68.77006622 -2.9375 5.5625 C-4.5875 7.5425 -6.2375 9.5225 -7.9375 11.5625 C-8.5975 11.2325 -9.2575 10.9025 -9.9375 10.5625 C-8.45996625 6.25302655 -5.57416175 -1.25868169 0 0 Z M113.0625 218.5625 C112.92944568 230.93655198 113.29572114 243.21188342 114.0625 255.5625 C118.80114956 252.18907475 121.98554567 248.10344825 125.4375 243.5 C126.00895752 242.74501221 126.58041504 241.99002441 127.16918945 241.2121582 C131.44179151 235.51474812 135.49861548 229.73624457 139.0625 223.5625 C139.47113281 222.88832031 139.87976562 222.21414063 140.30078125 221.51953125 C141.23221805 219.12645516 140.9120185 217.94115181 140.0625 215.5625 C130.47932845 215.20902236 122.30049815 215.67240002 113.0625 218.5625 Z M99.23413086 221.9519043 C98.2513768 222.25609787 97.26862274 222.56029144 96.25608826 222.873703 C95.19060257 223.2079982 94.12511688 223.5422934 93.02734375 223.88671875 C91.3664547 224.40163628 91.3664547 224.40163628 89.67201233 224.92695618 C86.11342216 226.03065188 82.55658912 227.13987444 79 228.25 C64.07571651 232.90112108 49.1635271 237.51509434 34.0625 241.5625 C35.00074969 242.66952278 35.94080294 243.7750171 36.8815918 244.87988281 C37.40488571 245.495672 37.92817963 246.11146118 38.46733093 246.74591064 C40.80484396 249.40788634 43.33030212 251.85112446 45.875 254.3125 C50.52093824 258.88520602 54.74749156 263.63460855 58.8046875 268.74609375 C60.78184019 271.21240359 62.8197957 273.60894539 64.89282227 275.99462891 C72.49451929 284.77644187 79.24136741 294.17099536 86.0625 303.5625 C87.76294071 305.90176432 89.47087059 308.23509722 91.1875 310.5625 C91.85007812 311.47 92.51265625 312.3775 93.1953125 313.3125 C94.99118861 315.47656828 96.74083267 316.99408474 99.0625 318.5625 C101.64157564 317.58050885 102.84245467 316.93787145 104.2578125 314.5234375 C109.56352262 299.76553793 109.36796971 284.34860698 109.25 268.875 C109.24247006 267.00553499 109.23522894 265.13606879 109.22827148 263.26660156 C109.41479503 241.8169519 109.41479503 241.8169519 107.0625 220.5625 C104.04815927 220.5625 102.09255692 221.06021736 99.23413086 221.9519043 Z " fill="#C0C0C0" transform="translate(1576.9375,287.4375)"/>
<path d="M0 0 C3.918027 4.7336474 5.39829911 9.74655124 6.9375 15.625 C7.18983398 16.56706299 7.44216797 17.50912598 7.70214844 18.47973633 C10.62226283 29.79655356 12.5436573 41.30118094 14.46289062 52.82177734 C15.26299554 57.55621631 16.12695548 62.27854195 17 67 C40.86558528 63.36700334 64.58756682 59.22536059 88.25 54.4375 C89.43102295 54.19880188 90.6120459 53.96010376 91.82885742 53.71417236 C99.55423768 52.15092987 107.27736668 50.57674672 115 49 C149.25412927 42.00903225 183.14570331 38.18563282 218 36 C215.69 34.68 213.38 33.36 211 32 C211 31.01 211 30.02 211 29 C216.96499162 29.5533137 222.13145531 30.82917112 227.75 32.875 C228.49121094 33.13152344 229.23242188 33.38804687 229.99609375 33.65234375 C233.7800701 35.00424913 236.93601084 36.30691479 240 39 C239.625 41.4375 239.625 41.4375 239 44 C236.6033204 45.1983398 235.092005 45.13703208 232.41552734 45.15771484 C231.45666626 45.16812302 230.49780518 45.17853119 229.5098877 45.18925476 C227.93878235 45.19998772 227.93878235 45.19998772 226.3359375 45.2109375 C224.09227607 45.23643554 221.84862384 45.26275431 219.60498047 45.28979492 C217.83450348 45.30965958 217.83450348 45.30965958 216.02825928 45.32992554 C188.95162502 45.66400113 162.66565898 47.00795059 135.953125 51.63671875 C135.21077732 51.76441525 134.46842964 51.89211174 133.70358658 52.02367783 C115.35424891 55.18962849 97.11698291 58.89812342 78.875 62.625 C72.45699809 63.93598987 66.03820935 65.24293589 59.6171875 66.5390625 C58.85214653 66.69359138 58.08710556 66.84812027 57.29888153 67.00733185 C43.91938177 69.70054432 30.50615373 72.02391893 17 74 C17.06305328 75.01254601 17.06305328 75.01254601 17.12738037 76.04554749 C18.52165645 98.74672035 19.04542775 123.25064061 4 142 C0.79169544 145.47566327 -2.53256059 148.7837232 -6 152 C-5.02450195 151.80422363 -5.02450195 151.80422363 -4.02929688 151.60449219 C9.82979744 148.85482476 23.6698371 146.49969514 37.6875 144.75 C38.97269531 144.58725586 40.25789062 144.42451172 41.58203125 144.25683594 C72.76130437 140.48747309 120.65382991 135.50853437 147 156 C148 157 148 157 148.25 159.375 C148 162 148 162 146.8125 163.75 C142.78657285 166.52650148 137.90739872 166.11017574 133.1875 166.0625 C132.02605469 166.05347656 130.86460937 166.04445313 129.66796875 166.03515625 C128.34732422 166.01775391 128.34732422 166.01775391 127 166 C127 164.68 127 163.36 127 162 C129.64 161.01 132.28 160.02 135 159 C119.29830918 151.53526174 101.57021588 151.44665833 84.5 151.5625 C83.52644562 151.56587372 82.55289124 151.56924744 81.54983521 151.57272339 C43.56771609 151.76161228 6.77098831 158.67828601 -30.02270508 167.69067383 C-40.26058367 170.17851277 -50.48988649 172.29523043 -61.0625 172.25 C-62.29097656 172.25515625 -63.51945313 172.2603125 -64.78515625 172.265625 C-67.79320887 172.01708602 -69.47772377 171.58507134 -72 170 C-71.125 165.125 -71.125 165.125 -70 164 C-67.21024796 163.55023605 -64.42288358 163.14238778 -61.625 162.75 C-40.12905836 159.52591523 -15.02644821 154.06283619 -1 136 C11.19212705 117.16922785 10.5497757 96.63602912 11 75 C10.40101898 75.09269669 9.80203796 75.18539337 9.18490601 75.28089905 C-8.18767875 77.92025978 -25.60470035 79.86502411 -43.0859375 81.62109375 C-44.21837135 81.73495045 -45.35080521 81.84880714 -46.51755524 81.96611404 C-55.99339163 82.91668817 -65.47054551 83.85387328 -74.94775391 84.79064941 C-83.16109753 85.60302929 -91.37391226 86.42048785 -99.5859375 87.24609375 C-101.29125767 87.41738863 -101.29125767 87.41738863 -103.03102875 87.59214401 C-121.88811451 89.49535884 -140.6792524 91.75699641 -159.46258736 94.27944756 C-167.05418812 95.28940936 -174.58489262 96.14374939 -182.25 96.1875 C-183.38953125 96.20167969 -184.5290625 96.21585937 -185.703125 96.23046875 C-189.11029295 95.99228995 -191.82215985 95.21817206 -195 94 C-194.67 93.01 -194.34 92.02 -194 91 C-193.01233643 90.87471924 -192.02467285 90.74943848 -191.00708008 90.62036133 C-187.12782056 90.12787461 -183.24881999 89.63336974 -179.36987305 89.13842773 C-177.73126497 88.9295932 -176.0925983 88.72121757 -174.45385742 88.51342773 C-172.01723417 88.20436653 -169.58084291 87.89353905 -167.14453125 87.58203125 C-166.25465012 87.46860382 -165.36476898 87.35517639 -164.44792175 87.23831177 C-158.55459059 86.4796919 -152.66830993 85.6775504 -146.78442383 84.84912109 C-124.78240733 81.76501479 -102.76685145 79.34063805 -80.65018845 77.24609375 C-73.57250503 76.57299353 -66.49655651 75.88168272 -59.4203434 75.19332886 C-57.67276736 75.02341907 -55.92516696 74.85375976 -54.17754173 74.68435669 C-39.0865004 73.22141285 -24.00794508 71.66325615 -8.9375 70 C-7.49747116 69.84120361 -7.49747116 69.84120361 -6.02835083 69.67919922 C-1.01821271 69.12549705 3.9912587 68.56619468 9 68 C8.50174292 58.08799421 7.48630533 48.47050364 5.75 38.6875 C5.53182617 37.43799561 5.31365234 36.18849121 5.08886719 34.90112305 C2.45660913 19.04288831 2.45660913 19.04288831 -3 4 C-4.98 4 -6.96 4 -9 4 C-9 3.01 -9 2.02 -9 1 C-5.62409801 -0.12530066 -3.53135195 -0.50447885 0 0 Z " fill="#C1C1C1" transform="translate(373,277)"/>
<path d="M0 0 C0.99 0.33 1.98 0.66 3 1 C3.94921875 3.50390625 3.94921875 3.50390625 4.6875 6.5625 C4.93886719 7.57441406 5.19023437 8.58632813 5.44921875 9.62890625 C5.63097656 10.41136719 5.81273437 11.19382812 6 12 C6.804375 11.071875 6.804375 11.071875 7.625 10.125 C13.53091544 4.84075987 20.82510981 5.76709562 28.28125 5.875 C29.48575806 5.88257324 30.69026611 5.89014648 31.93127441 5.89794922 C37.05998991 5.93038117 42.1883798 5.98590558 47.31689453 6.04101562 C61.72522052 6.18243791 75.8582789 5.97304747 90.19287109 4.47167969 C96.8162449 3.7855723 103.40357927 3.63252846 110.0625 3.625 C111.23748047 3.60050781 112.41246094 3.57601562 113.62304688 3.55078125 C130.48025589 3.49493186 145.84022397 10.14132129 157.96484375 21.8125 C161.79667249 25.93116428 164.14164104 29.56254233 164.625 35.3125 C164.04437317 46.36313976 153.73438486 55.72319011 146.05859375 62.72265625 C124.26269371 82.02419333 98.65074608 93.63212491 71 102 C81.52675067 102.2165301 91.8384241 101.66274642 102.3171463 100.70362854 C104.97157638 100.46136166 107.62669639 100.22850958 110.28216553 99.9979248 C117.82208077 99.34174922 125.36064977 98.67088397 132.8984375 97.99072266 C190.43927934 92.81309311 190.43927934 92.81309311 200 96 C200.33 96.99 200.66 97.98 201 99 C194.80112324 106.16809121 180.96009538 104.73929497 172.109375 105.4375 C170.55882157 105.56392291 169.00830551 105.6908048 167.45782471 105.81811523 C164.20702524 106.08383181 160.95594834 106.34570721 157.70458984 106.60449219 C153.63477851 106.92847619 149.56556243 107.25928273 145.49651051 107.59265423 C87.06305678 112.37694391 87.06305678 112.37694391 66.8125 112.1875 C65.38476623 112.18603063 63.95703139 112.18538461 62.52929688 112.18554688 C52.44776012 112.14925337 52.44776012 112.14925337 49 111 C49.02320313 112.134375 49.04640625 113.26875 49.0703125 114.4375 C49.08908814 115.95832668 49.1072864 117.47916057 49.125 119 C49.14175781 119.74378906 49.15851563 120.48757813 49.17578125 121.25390625 C49.23277482 127.8081672 48.75410783 133.67699234 44.6875 139.0625 C42 141 42 141 39.5625 141.3125 C26.30739678 134.52330079 20.90194696 109.89248054 16.65258789 96.91992188 C10.65435936 78.28694272 6.64205519 59.17611454 3.125 39.9375 C2.92156982 38.82681152 2.71813965 37.71612305 2.50854492 36.57177734 C1.20052723 29.06612576 0.4584602 21.60344587 0 14 C-0.66 14 -1.32 14 -2 14 C-1.85970581 11.8537974 -1.71261836 9.70803782 -1.5625 7.5625 C-1.48128906 6.36753906 -1.40007812 5.17257812 -1.31640625 3.94140625 C-1 1 -1 1 0 0 Z M95.74517822 12.73106384 C84.88922367 13.88595658 74.10732083 14.15676787 63.203125 14.08984375 C62.47438046 14.08573801 61.74563591 14.08163227 60.9948082 14.07740211 C54.1924251 14.03527871 47.39042215 13.96228914 40.58837891 13.88354492 C36.82069247 13.84092946 33.05311295 13.81280404 29.28524017 13.79324532 C27.17823176 13.77762259 25.07194024 13.74472506 22.96514893 13.71141052 C21.69822205 13.70472855 20.43129517 13.69804657 19.12597656 13.69116211 C18.01176331 13.67846786 16.89755005 13.66577362 15.74957275 13.6526947 C12.99633356 13.77698361 12.99633356 13.77698361 11.14837646 15.33961487 C9.18073646 18.18453578 9.41498145 20.74302173 10 24 C13.28710713 35.12442274 19.23111643 44.8422273 25.234375 54.65625 C34.15038965 69.2557186 40.99106717 83.60712892 46 100 C52.6480024 99.41459898 58.82304717 98.21731619 65.25 96.4375 C66.67638794 96.04268433 66.67638794 96.04268433 68.1315918 95.63989258 C99.51591725 86.69625341 136.12993911 69.72876867 154.7109375 41.390625 C156.4123575 38.23526427 156.56764876 36.54780477 156 33 C151.77385029 24.38515636 142.20829749 19.18007865 133.59375 15.57421875 C121.05017851 11.30505766 108.80552645 11.30760457 95.74517822 12.73106384 Z M9 33 C9.53688088 41.64391031 11.33462314 49.96773824 13.3125 58.375 C13.48306915 59.10266571 13.65363831 59.83033142 13.82937622 60.58004761 C19.425788 84.19253768 25.95065283 109.30558075 39 130 C39.33 130 39.66 130 40 130 C40.88277755 125.48184719 41.10589503 121.22487306 41.0625 116.625 C41.05347656 115.37976563 41.04445313 114.13453125 41.03515625 112.8515625 C41.02355469 111.91054688 41.01195312 110.96953125 41 110 C39.35 109.34 37.7 108.68 36 108 C36.375 105.5625 36.375 105.5625 37 103 C37.99 102.505 37.99 102.505 39 102 C38.59294464 95.15968067 37.41202662 89.25727852 34.9375 82.875 C34.62441895 82.05153076 34.31133789 81.22806152 33.98876953 80.37963867 C30.84589833 72.29963936 27.09533605 64.63334622 23 57 C22.46407227 56.0001709 21.92814453 55.0003418 21.37597656 53.97021484 C17.61178494 46.96492373 13.81690848 39.97669351 10 33 C9.67 33 9.34 33 9 33 Z " fill="#C3C3C3" transform="translate(324,518)"/>
<path d="M0 0 C4.75258889 2.43235947 7.96634068 5.5563046 9.9375 10.625 C10.0625 12.375 10.0625 12.375 9.0625 14.375 C8.4025 14.375 7.7425 14.375 7.0625 14.375 C5.6898318 12.40178947 4.35822383 10.39956848 3.0625 8.375 C-0.47561281 4.83688719 -4.98736892 4.49759756 -9.8125 3.875 C-17.4689973 4.11149413 -23.87082832 10.66726143 -28.890625 15.91796875 C-42.80671362 32.62258658 -46.21253234 50.02392074 -44.9375 71.375 C-43.94863583 77.97780961 -41.84258717 82.81212821 -36.9375 87.375 C-31.81149611 90.11681603 -26.44992173 89.80033023 -20.9375 88.375 C0.4658468 77.79447762 10.71399764 49.4668709 19.60107422 28.97509766 C21.4351394 24.76158838 23.3237763 20.58108157 25.3125 16.4375 C26.00085937 15.00083984 26.00085937 15.00083984 26.703125 13.53515625 C28.0625 11.375 28.0625 11.375 31.0625 10.375 C32.0525 10.87 32.0525 10.87 33.0625 11.375 C32.51199996 16.30687703 30.85867923 20.14249461 28.625 24.5 C24.77162743 32.3386367 21.73128862 40.39749096 18.8125 48.625 C18.19483765 50.36354248 18.19483765 50.36354248 17.56469727 52.13720703 C12.47065037 64.49927891 12.47065037 64.49927891 10.0625 77.375 C10.34335449 76.89780518 10.62420898 76.42061035 10.91357422 75.92895508 C18.69789246 62.77140459 26.75225531 50.55928213 37.4375 39.5625 C37.93757568 39.03994629 38.43765137 38.51739258 38.95288086 37.97900391 C41.95125895 35.0003753 42.64284684 34.375 47.0625 34.375 C46.46341391 39.182481 45.00632632 43.32331675 43.125 47.75 C39.21335642 57.28400602 39.21335642 57.28400602 37.953125 67.41015625 C37.94716309 68.14177979 37.94120117 68.87340332 37.93505859 69.62719727 C37.93858922 72.87784531 37.99150763 76.12512722 38.0625 79.375 C44.13906782 78.32779103 49.01871961 77.00652188 54.0625 73.375 C56.64673308 69.04908185 57.66780744 65.06646641 58.5 60.125 C61.46336154 43.87456605 61.46336154 43.87456605 67.0625 39.375 C69.25 39.6875 69.25 39.6875 71.0625 40.375 C70.32806241 47.21735528 68.27373209 53.4692769 66.14648438 59.9921875 C64.35336778 65.70584714 63.20864436 70.76983175 64.625 76.75 C66.95110263 79.37950732 69.70579111 79.1263549 73.0625 79.375 C78.7990983 70.4093102 81.87306447 63.1573925 81.0625 52.375 C79.78164841 48.53244523 77.78859411 47.37968298 74.65625 44.97265625 C72.78514713 43.09696735 72.34903136 41.98959862 72.0625 39.375 C72.3925 38.385 72.7225 37.395 73.0625 36.375 C75.6875 35.4375 75.6875 35.4375 79.0625 35.375 C82.04476162 37.87050168 84.32682936 40.90365872 86.0625 44.375 C91.31742536 43.99964819 94.63294475 42.29700421 98.0625 38.375 C100.23454259 35.13181312 102.1882909 31.79775776 104.0625 28.375 C105.3825 28.705 106.7025 29.035 108.0625 29.375 C107.94132812 29.95765625 107.82015625 30.5403125 107.6953125 31.140625 C106.32170651 37.86072816 105.15608533 44.60407805 104.0625 51.375 C104.35382813 50.818125 104.64515625 50.26125 104.9453125 49.6875 C112.63648395 35.36934434 112.63648395 35.36934434 117.12109375 33.53125 C117.76175781 33.4796875 118.40242188 33.428125 119.0625 33.375 C121.0625 35.375 121.0625 35.375 121.29296875 37.22265625 C121.27878906 37.95355469 121.26460937 38.68445313 121.25 39.4375 C121.24033203 40.50677734 121.24033203 40.50677734 121.23046875 41.59765625 C120.99231505 45.53550002 120.49815665 49.45409015 120.0625 53.375 C123.3625 46.445 126.6625 39.515 130.0625 32.375 C131.7125 32.375 133.3625 32.375 135.0625 32.375 C139.13884144 38.48951216 137.39832848 47.35665029 136.0625 54.3125 C135.876875 55.14652344 135.69125 55.98054687 135.5 56.83984375 C135.00267003 59.72169329 135.03440452 62.45532779 135.0625 65.375 C135.31418945 64.50174072 135.56587891 63.62848145 135.82519531 62.72875977 C136.76598755 59.49484034 137.7217139 56.26614941 138.68798828 53.03979492 C139.10326393 51.64185177 139.51248269 50.24209461 139.91552734 48.84057617 C140.49559241 46.82745111 141.09705252 44.82183196 141.703125 42.81640625 C142.05922852 41.60670166 142.41533203 40.39699707 142.78222656 39.15063477 C144.0625 36.375 144.0625 36.375 146.20996094 35.47241211 C146.82129883 35.44026611 147.43263672 35.40812012 148.0625 35.375 C148.96521476 38.98065724 149.05801943 41.55604313 148.25 45.17578125 C148.06179688 46.07103516 147.87359375 46.96628906 147.6796875 47.88867188 C147.27069315 49.74338361 146.85926394 51.59756021 146.4453125 53.45117188 C145.25472658 59.13907378 144.81720396 63.6647047 146.0625 69.375 C147.96038303 71.40836251 147.96038303 71.40836251 150.0625 72.375 C154.22998025 60.70605531 157.09384142 48.60140589 159.0625 36.375 C161 35.8125 161 35.8125 163.0625 35.375 C164.0625 36.375 164.0625 36.375 164.14428711 38.47290039 C164.1263208 39.38031982 164.10835449 40.28773926 164.08984375 41.22265625 C164.07759766 42.22103516 164.06535156 43.21941406 164.05273438 44.24804688 C164.01802896 46.34708177 163.97908096 48.44605152 163.93554688 50.54492188 C163.85144396 58.27744289 164.54300143 65.33600285 168.0625 72.375 C169.0525 73.035 170.0425 73.695 171.0625 74.375 C170.7325 76.025 170.4025 77.675 170.0625 79.375 C168.7425 79.705 167.4225 80.035 166.0625 80.375 C163.10500209 76.90758866 160.98401848 73.50626473 159.0625 69.375 C158.65 69.931875 158.2375 70.48875 157.8125 71.0625 C157.235 71.825625 156.6575 72.58875 156.0625 73.375 C155.464375 74.2825 154.86625 75.19 154.25 76.125 C152.0625 78.375 152.0625 78.375 149.25 79 C144.99845322 78.16636338 142.35317607 76.10100385 139.0625 73.375 C138.340625 74.179375 137.61875 74.98375 136.875 75.8125 C134.03734311 78.39792072 132.79083853 79.05542813 129.0625 79.375 C126.90905782 76.14483673 126.83983164 75.73788636 127.234375 72.12890625 C127.32090332 71.29649414 127.40743164 70.46408203 127.49658203 69.60644531 C127.65296143 68.28531738 127.65296143 68.28531738 127.8125 66.9375 C127.91030762 66.04256836 128.00811523 65.14763672 128.10888672 64.22558594 C128.86036381 57.56208831 129.83626936 50.96802846 131.0625 44.375 C124.29283343 59.52304048 124.29283343 59.52304048 118.9140625 75.1953125 C117.99468403 77.54858399 116.96716484 78.74699039 115.0625 80.375 C113.7425 79.715 112.4225 79.055 111.0625 78.375 C110.43774218 67.19877681 112.3181359 56.37933945 114.0625 45.375 C107.72982239 57.89231861 101.5427334 70.45613146 96.0625 83.375 C94.7425 83.375 93.4225 83.375 92.0625 83.375 C90.54918803 79.42722966 91.57277164 75.94720192 92.49609375 71.984375 C92.65288101 71.27976135 92.80966827 70.57514771 92.97120667 69.84918213 C93.47241516 67.60580631 93.98601611 65.36547958 94.5 63.125 C94.84261861 61.6017471 95.18442497 60.07831125 95.52539062 58.5546875 C96.36169386 54.82593905 97.20911999 51.09987561 98.0625 47.375 C96.99 47.87 95.9175 48.365 94.8125 48.875 C91.80833192 50.26153911 90.60315105 50.375 87.0625 50.375 C87.12050781 51.23480469 87.17851563 52.09460938 87.23828125 52.98046875 C87.69118047 64.84642824 84.94507539 75.2797207 77.0625 84.375 C74.25617997 86.69747175 72.87327827 86.36899296 69.125 86.25 C65.18080247 85.63303055 62.91668588 84.22918588 60.0625 81.375 C59.4025 80.385 58.7425 79.395 58.0625 78.375 C57.2375 78.973125 56.4125 79.57125 55.5625 80.1875 C49.38925835 84.2595209 43.46602662 86.22458502 36.0625 85.375 C33.35546875 83.7734375 33.35546875 83.7734375 31.0625 81.375 C29.20289978 71.52645937 31.7763434 60.96869287 34.0625 51.375 C30.04054026 56.88687113 26.29595243 62.51475951 22.80078125 68.37109375 C22.43902802 68.97660065 22.07727478 69.58210754 21.70455933 70.20596313 C20.21137216 72.71217678 18.72315905 75.22122277 17.24291992 77.73510742 C16.14428389 79.59724674 15.0357525 81.4531953 13.92578125 83.30859375 C13.27907471 84.40228271 12.63236816 85.49597168 11.96606445 86.62280273 C10.16723535 89.22357232 8.77862283 90.79109068 6.0625 92.375 C3.89281791 92.12703633 2.62016393 91.93266393 1.0625 90.375 C0.72048624 84.10474776 1.66194465 78.47741975 3.0625 72.375 C2.49402344 73.08785156 1.92554688 73.80070313 1.33984375 74.53515625 C-13.85329488 93.38073556 -13.85329488 93.38073556 -23.9375 95.375 C-31.82839794 96.06231439 -36.77567924 94.85227426 -43.5625 90.8125 C-51.91689943 82.23824795 -52.14095546 72.13877909 -52.1875 60.875 C-52.208125 59.658125 -52.22875 58.44125 -52.25 57.1875 C-52.33703352 36.82165654 -44.06074911 22.02922654 -30.4375 7.4375 C-21.41693833 -0.97328012 -12.00135693 -4.70485089 0 0 Z " fill="#C0C0C0" transform="translate(1798.9375,676.625)"/>
<path d="M0 0 C1.3359375 2.2109375 1.3359375 2.2109375 2 4 C-0.32415902 7.79204893 -0.32415902 7.79204893 -3.03125 8.625 C-7.13527508 9.14340317 -11.18089395 9.10489217 -15.3125 9.0625 C-16.14845703 9.05798828 -16.98441406 9.05347656 -17.84570312 9.04882812 C-19.89716649 9.03710548 -21.94859273 9.01917203 -24 9 C-24 7.68 -24 6.36 -24 5 C-20.7 4.34 -17.4 3.68 -14 3 C-17.26572541 0.55070595 -18.96319916 -0.53181719 -22.6328125 -1.75390625 C-23.96699219 -2.19959961 -23.96699219 -2.19959961 -25.328125 -2.65429688 C-26.71257812 -3.10385742 -26.71257812 -3.10385742 -28.125 -3.5625 C-29.02476562 -3.86607422 -29.92453125 -4.16964844 -30.8515625 -4.48242188 C-111.78346956 -31.16902054 -228.90265686 9.0297291 -341.98803711 39.36791992 C-352.60238798 42.34123835 -363.13511267 45.10365104 -374 47 C-374.7530542 47.1330957 -375.5061084 47.26619141 -376.28198242 47.40332031 C-384.89439285 48.82791115 -394.84983247 49.17229598 -403 46 C-404.30448102 41.56781595 -404.30448102 41.56781595 -402.98828125 39.11328125 C-390.0191306 25.17673474 -373.1736772 13.27222218 -356 5 C-355.34 5 -354.68 5 -354 5 C-354 5.99 -354 6.98 -354 8 C-354.95777344 8.51046875 -355.91554688 9.0209375 -356.90234375 9.546875 C-379.48715671 21.73197071 -379.48715671 21.73197071 -397 40 C-387.88688892 39.85450766 -379.25293333 38.83879151 -370.359375 36.86328125 C-368.86436714 36.53410202 -368.86436714 36.53410202 -367.3391571 36.19827271 C-357.39009821 33.95182279 -347.62252546 31.16083156 -337.84515381 28.26895142 C-265.87390736 7.05360613 -192.67804652 -6.85636817 -118 -14 C-117.29288879 -14.06896484 -116.58577759 -14.13792969 -115.85723877 -14.20898438 C-30.71865079 -22.49961379 -30.71865079 -22.49961379 0 0 Z " fill="#C2C2C2" transform="translate(1935,607)"/>
<path d="M0 0 C2.25 0 2.25 0 5 1 C11.53703104 10.42101532 11.96587585 23.60032965 13.125 34.75 C13.20057129 35.47348633 13.27614258 36.19697266 13.35400391 36.94238281 C14.81118578 52.38258988 15.14351883 67.90284578 15.23012161 83.40161705 C15.24668529 86.3352365 15.26871438 89.26877401 15.29208374 92.2023468 C15.32526924 96.38098286 15.35696424 100.55962577 15.38760376 104.73828125 C15.70205981 157.39863705 15.70205981 157.39863705 18 210 C18.05738342 210.9105011 18.11476685 211.8210022 18.17388916 212.75909424 C20.26992221 245.57042832 24.32184679 278.1263169 28.54904175 310.71568298 C29.58975417 318.75279446 30.59631043 326.79296858 31.55859375 334.83984375 C31.67397995 335.80298996 31.78936615 336.76613617 31.9082489 337.75846863 C32.33168019 341.30086379 32.75397939 344.84337291 33.16964722 348.38668823 C34.14208104 356.66751596 35.20103909 364.84795192 37 373 C37.99 369.37 38.98 365.74 40 362 C41.32 361.67 42.64 361.34 44 361 C45.71337345 369.35269556 45.79994418 377.19094041 42 385 C39.074084 386.462958 37.24382653 386.44523109 34 386 C26.68775687 379.5380177 25.63837113 369.42755117 24.5859375 360.16796875 C24.46648773 359.16597946 24.34703796 358.16399017 24.22396851 357.13163757 C22.19295476 339.58568325 20.59645157 321.98794542 18.92006302 304.40549088 C18.42143463 299.17863094 17.92035569 293.95200573 17.41967773 288.7253418 C16.82361293 282.50117728 16.22804363 276.27696679 15.63444519 270.05256653 C14.56994889 258.89719701 13.48486716 247.74430476 12.37109375 236.59375 C12.0347817 233.18502419 11.69959002 229.77619129 11.36517334 226.36727905 C11.17160365 224.41364602 10.97470182 222.46033843 10.77349854 220.50747681 C7.01563169 183.97864217 6.68840635 147.24049219 6.48431396 110.55548096 C6.36320454 89.2784424 6.11399959 68.042231 5.03125 46.7890625 C4.98852463 45.94537487 4.94579926 45.10168724 4.90177917 44.23243332 C4.4831581 36.12920555 4.03515505 28.05262434 3 20 C1.68 20.33 0.36 20.66 -1 21 C-2.26242518 17.2409877 -1.92985044 13.85524011 -1.625 9.9375 C-1.48964844 8.09478516 -1.48964844 8.09478516 -1.3515625 6.21484375 C-1 3 -1 3 0 0 Z " fill="#C3C3C3" transform="translate(926,285)"/>
<path d="M0 0 C3.37638349 0.19995503 4.70594144 0.6993703 7.09765625 3.14453125 C8.07025391 4.46517578 8.07025391 4.46517578 9.0625 5.8125 C11.03172128 8.45242635 12.89067765 10.89295916 15.24609375 13.19921875 C17 15 17 15 17 17 C12.62140745 16.49477778 10.18348776 13.82172778 7 11 C7.29414839 13.06251747 7.5884526 15.12501271 7.8828125 17.1875 C8.06618164 18.47398437 8.24955078 19.76046875 8.43847656 21.0859375 C8.78003441 23.46674421 9.1248585 25.84708932 9.47558594 28.2265625 C16.32361002 74.76367237 20.14397949 122.58833225 20.3125 169.625 C20.31797852 170.67703613 20.32345703 171.72907227 20.32910156 172.81298828 C20.24388145 181.58037422 19.74105406 190.04114659 14 197 C10.19593784 199.53604144 8.51491096 199.60198813 4 199 C-1.67923908 195.44895195 -5.12899805 190.30145371 -8.4375 184.625 C-8.90196533 183.84785645 -9.36643066 183.07071289 -9.8449707 182.27001953 C-14.29839055 174.71321122 -18.2351372 166.91807821 -22 159 C-18 159 -18 159 -16.61889648 160.33837891 C-16.20712158 160.96147949 -15.79534668 161.58458008 -15.37109375 162.2265625 C-14.89833008 162.92273682 -14.42556641 163.61891113 -13.93847656 164.33618164 C-13.4431543 165.0914917 -12.94783203 165.84680176 -12.4375 166.625 C-11.38214152 168.18058525 -10.32347994 169.7339341 -9.26171875 171.28515625 C-8.72466309 172.07164551 -8.18760742 172.85813477 -7.63427734 173.66845703 C-5.13410652 177.23532757 -2.46238484 180.65558364 0.25 184.0625 C0.96651733 184.96379639 0.96651733 184.96379639 1.69750977 185.88330078 C2.79477398 187.25838685 3.89679261 188.62967744 5 190 C6.32 189.67 7.64 189.34 9 189 C11.08988548 181.25906419 11.39698311 173.86336024 11.375 165.875 C11.37478851 165.1533667 11.37457703 164.4317334 11.37435913 163.68823242 C11.2714545 127.06393619 7.99311507 90.18176936 4.4375 53.75 C4.33780914 52.71979736 4.23811829 51.68959473 4.13540649 50.62817383 C3.07003664 39.75260101 1.82051814 28.95075557 -0.03529358 18.1786499 C-1.00379103 12.48077847 -1.63939498 6.77914693 -1 1 C-0.67 0.67 -0.34 0.34 0 0 Z " fill="#C1C1C1" transform="translate(1220,458)"/>
<path d="M0 0 C4.09706401 3.11733131 6.06368957 5.94392366 7 11 C7.12586634 20.69170844 4.32626176 29.91892387 -0.3125 38.375 C-2.20523656 42.44087853 -2.42538764 43.81292379 -1 48 C-0.33618149 49.24082742 0.35263482 50.4685221 1.0625 51.68359375 C1.701875 52.77800781 2.34125 53.87242187 3 55 C3.54188965 54.63874023 4.0837793 54.27748047 4.64208984 53.90527344 C5.40730957 53.39512695 6.1725293 52.88498047 6.9609375 52.359375 C7.81703613 51.78848145 8.67313477 51.21758789 9.55517578 50.62939453 C11.44617759 49.3690541 13.33778659 48.10962424 15.22998047 46.85107422 C19.93340403 43.72098174 24.62797946 40.57985045 29.296875 37.3984375 C30.11236816 36.84575195 30.92786133 36.29306641 31.76806641 35.72363281 C33.31579842 34.6738556 34.85988165 33.61867459 36.39990234 32.55761719 C37.0955127 32.08743164 37.79112305 31.61724609 38.5078125 31.1328125 C39.11254395 30.71918457 39.71727539 30.30555664 40.34033203 29.87939453 C42 29 42 29 45 29 C44.6617273 31.83101319 44.44438338 33.53435259 42.44384766 35.63061523 C41.77401855 36.10184814 41.10418945 36.57308105 40.4140625 37.05859375 C39.65778564 37.60217529 38.90150879 38.14575684 38.12231445 38.70581055 C36.8861438 39.56299683 36.8861438 39.56299683 35.625 40.4375 C33.88117183 41.68181729 32.1376919 42.92662275 30.39453125 44.171875 C29.49814941 44.80544922 28.60176758 45.43902344 27.67822266 46.09179688 C24.31166738 48.49042915 20.99618042 50.95350528 17.68188477 53.42358398 C8.60952436 60.17760808 -0.54825461 66.78581307 -10 73 C-11.07636719 73.71800781 -12.15273437 74.43601562 -13.26171875 75.17578125 C-20.70527909 79.7999472 -28.3455216 82.75655378 -36.625 85.5625 C-37.68138672 85.92174561 -38.73777344 86.28099121 -39.82617188 86.65112305 C-40.82455078 86.9737915 -41.82292969 87.29645996 -42.8515625 87.62890625 C-43.74697754 87.91838135 -44.64239258 88.20785645 -45.56494141 88.50610352 C-48.12423351 89.02519795 -49.56031044 88.85144243 -52 88 C-51.69417731 85.17114009 -51.48465812 83.48465812 -49.4375 81.4375 C-47 80 -47 80 -43.375 78.375 C-31.49778301 72.55758759 -22.09047496 60.49021795 -14.875 49.6875 C-14.4720874 49.10073486 -14.0691748 48.51396973 -13.65405273 47.90942383 C-12.05869267 45.42763453 -11.01220302 43.54390599 -10.9453125 40.5625 C-12.49320819 36.80168676 -14.66257818 33.627439 -17 30.3125 C-17.48968262 29.60569092 -17.97936523 28.89888184 -18.48388672 28.1706543 C-22.07280644 23.08005807 -25.91588035 18.52555047 -30.3203125 14.11328125 C-32.23542457 11.70380304 -32.74056283 10.04579234 -33 7 C-31.15416633 5.15416633 -28.41081182 5.25739156 -25.93359375 4.74609375 C-23.01915758 4.0048723 -20.23401356 3.0437711 -17.40820312 2.02001953 C-6.1093955 -2.03646517 -6.1093955 -2.03646517 0 0 Z M-15.8125 9.5 C-16.50537109 9.73847656 -17.19824219 9.97695313 -17.91210938 10.22265625 C-19.61043895 10.80828714 -21.30555766 11.40321527 -23 12 C-22.37891984 15.09248853 -21.35596391 17.29789013 -19.63671875 19.93359375 C-18.92418945 21.0309082 -18.92418945 21.0309082 -18.19726562 22.15039062 C-17.69904297 22.90513672 -17.20082031 23.65988281 -16.6875 24.4375 C-16.20087891 25.18837891 -15.71425781 25.93925781 -15.21289062 26.71289062 C-12.64824069 30.6375299 -10.0138036 34.39918477 -7 38 C-1.0703016 25.02148594 -1.0703016 25.02148594 0 11 C-1.03942845 8.55754253 -1.03942845 8.55754253 -3 7 C-7.58556178 6.44366346 -11.55345127 7.99201146 -15.8125 9.5 Z M-6 48 C-6.87186841 49.05700027 -7.70096092 50.14933581 -8.51171875 51.25390625 C-9.02283203 51.94419922 -9.53394531 52.63449219 -10.06054688 53.34570312 C-10.59744141 54.07724609 -11.13433594 54.80878906 -11.6875 55.5625 C-15.60574425 60.89580133 -19.63658053 66.02164585 -24 71 C-17.99704967 69.44513746 -13.26425427 66.21087137 -8.125 62.875 C-7.24585938 62.31167969 -6.36671875 61.74835937 -5.4609375 61.16796875 C-3.30349915 59.78439416 -1.15007891 58.39497273 1 57 C0.02501855 55.4972763 -0.95509389 53.99788037 -1.9375 52.5 C-2.48277344 51.6646875 -3.02804687 50.829375 -3.58984375 49.96875 C-4.05519531 49.3190625 -4.52054688 48.669375 -5 48 C-5.33 48 -5.66 48 -6 48 Z " fill="#C1C1C1" transform="translate(1184,541)"/>
<path d="M0 0 C2.7913502 1.62078398 3.86032885 2.62463378 5 5.6875 C5 12.09128369 1.24390115 17.24224902 -3.10888672 21.71630859 C-3.6298291 22.22242676 -4.15077148 22.72854492 -4.6875 23.25 C-5.24711426 23.79865723 -5.80672852 24.34731445 -6.38330078 24.91259766 C-20.71524832 38.54180737 -37.04410658 47.63548579 -56.18725586 52.40405273 C-60.50915989 53.40320507 -60.50915989 53.40320507 -64 56 C-64.16677282 59.58343976 -64.16677282 59.58343976 -64 63 C-59.1965418 65.18339009 -54.37092638 67.26310061 -49.4752655 69.2321167 C-39.751573 73.16005602 -30.27498932 77.54003889 -20.79592896 82.02035522 C19.49782579 101.01531574 59.54150636 114.96329424 104 120 C104 121.32 104 122.64 104 124 C50.75263838 125.57467554 -25.80515253 102.62943601 -66.30395508 66.97143555 C-68.50881354 64.40856926 -68.53710881 62.90693114 -68.5 59.5625 C-68.5103125 58.63566406 -68.520625 57.70882812 -68.53125 56.75390625 C-67.81361678 53.0338223 -66.80881576 51.56756778 -64 49 C-60.99917663 47.7281902 -57.90742514 46.97418854 -54.75 46.1875 C-34.09688848 40.458818 -12.18399565 28.27599347 0 10 C0.16666667 6.5 0.16666667 6.5 0 3 C0 2.01 0 1.02 0 0 Z " fill="#C0C0C0" transform="translate(1349,499)"/>
<path d="M0 0 C4.60376694 1.73920084 6.49663347 4.8177685 8.8125 9.0625 C19.00204892 33.10015991 19.99348305 61.29705991 21.8125 87.0625 C21.88452637 88.01543945 21.95655273 88.96837891 22.03076172 89.95019531 C23.85427413 114.66676939 23.74575642 140.03658547 21.9375 164.75 C21.85910889 165.82846191 21.78071777 166.90692383 21.69995117 168.01806641 C21.27805422 172.97808596 20.70161945 177.40320118 18.8125 182.0625 C17.1625 182.3925 15.5125 182.7225 13.8125 183.0625 C11.77248364 178.9451182 11.80740113 176.55045374 12.66796875 172.08203125 C14.60581905 160.10254953 14.16317085 147.89856216 14.13035583 135.80066299 C14.12495162 133.73147651 14.12255753 131.66230139 14.1204834 129.59310913 C15.90698217 66.4043327 15.90698217 66.4043327 -1.13671875 7.04296875 C-2.20229361 5.03461761 -2.82280104 3.30418292 -3.1875 1.0625 C-2.1875 0.0625 -2.1875 0.0625 0 0 Z " fill="#C1C1C1" transform="translate(644.1875,409.9375)"/>
<path d="M0 0 C1.5090332 1.19384766 1.5090332 1.19384766 3 3 C3.15698242 5.23193359 3.15698242 5.23193359 2.85546875 7.8984375 C2.75516357 8.91583008 2.6548584 9.93322266 2.55151367 10.98144531 C2.43138916 12.10131836 2.31126465 13.22119141 2.1875 14.375 C-1.49091708 55.65657749 -3.6750199 111.52615825 18.8046875 147.921875 C19.19914063 148.60765625 19.59359375 149.2934375 20 150 C19.67 150.99 19.34 151.98 19 153 C15.03487328 152.26823842 13.10695486 150.60429866 10.57421875 147.43359375 C-5.75859062 122.18461053 -6.21892942 84.16089135 -6.1875 55.125 C-6.18756042 54.26815613 -6.18762085 53.41131226 -6.18768311 52.52850342 C-6.14424469 9.21636704 -6.14424469 9.21636704 0 0 Z " fill="#C0C0C0" transform="translate(772,409)"/>
<path d="M0 0 C2.7913502 1.62078398 3.86032885 2.62463378 5 5.6875 C5 12.09128369 1.24390115 17.24224902 -3.10888672 21.71630859 C-3.6298291 22.22242676 -4.15077148 22.72854492 -4.6875 23.25 C-5.24711426 23.79865723 -5.80672852 24.34731445 -6.38330078 24.91259766 C-20.71524832 38.54180737 -37.04410658 47.63548579 -56.18725586 52.40405273 C-60.50915989 53.40320507 -60.50915989 53.40320507 -64 56 C-64.39764263 57.98821313 -64.73775349 59.98944339 -65 62 C-66.5625 60.375 -66.5625 60.375 -68 58 C-67.87322517 54.89401664 -67.68698457 52.84719913 -65.7019043 50.39916992 C-63.7608799 48.80341453 -62.31964662 48.29772394 -59.89453125 47.67578125 C-59.0840332 47.45647949 -58.27353516 47.23717773 -57.43847656 47.01123047 C-56.5719043 46.78064941 -55.70533203 46.55006836 -54.8125 46.3125 C-34.16310079 40.40577685 -12.21874101 28.32811152 0 10 C0.16666667 6.5 0.16666667 6.5 0 3 C0 2.01 0 1.02 0 0 Z " fill="#B8B8B8" transform="translate(1349,499)"/>
<path d="M0 0 C0.71142578 1.64599609 0.71142578 1.64599609 1 4 C-0.33251953 6.64697266 -0.33251953 6.64697266 -2.3828125 9.6640625 C-2.74843796 10.20888779 -3.11406342 10.75371307 -3.49076843 11.31504822 C-4.68969857 13.09386233 -5.90670546 14.85940441 -7.125 16.625 C-7.96000478 17.85355805 -8.79422883 19.08264708 -9.62768555 20.31225586 C-15.72034546 29.26907576 -21.98644517 38.09471376 -28.41162109 46.81591797 C-30.163056 49.22420826 -31.87446664 51.65808168 -33.58203125 54.09765625 C-34.17459717 54.93804443 -34.76716309 55.77843262 -35.37768555 56.64428711 C-36.51820294 58.26351265 -37.65153334 59.88783123 -38.77661133 61.51782227 C-39.28603271 62.23639404 -39.7954541 62.95496582 -40.3203125 63.6953125 C-40.76648926 64.33484863 -41.21266602 64.97438477 -41.67236328 65.63330078 C-42.1104834 66.08431152 -42.54860352 66.53532227 -43 67 C-43.99 67 -44.98 67 -46 67 C-47.68798827 68.43750191 -47.68798827 68.43750191 -49 70 C-49.66 69.67 -50.32 69.34 -51 69 C-50.35675781 68.27039063 -49.71351562 67.54078125 -49.05078125 66.7890625 C-41.0770146 57.62357256 -33.96714963 47.94431966 -27 38 C-26.45021484 37.21786133 -25.90042969 36.43572266 -25.33398438 35.62988281 C-18.68490607 26.14068704 -12.31865963 16.55461256 -6.51318359 6.52148438 C-6.09375488 5.81056641 -5.67432617 5.09964844 -5.2421875 4.3671875 C-4.8797998 3.73925293 -4.51741211 3.11131836 -4.14404297 2.46435547 C-3 1 -3 1 0 0 Z " fill="#B3B3B3" transform="translate(1113,486)"/>
<path d="M0 0 C0 0.99 0 1.98 0 3 C-0.969375 3.52207031 -1.93875 4.04414062 -2.9375 4.58203125 C-13.08025467 10.1240671 -22.58539714 16.30211099 -32 23 C-32.99 22.34 -33.98 21.68 -35 21 C-31.7499347 18.80825671 -28.49663338 16.62140744 -25.24047852 14.4387207 C-23.59941025 13.33727332 -21.96080809 12.23215446 -20.32226562 11.12695312 C-3.70804795 0 -3.70804795 0 0 0 Z " fill="#ADADAD" transform="translate(1581,612)"/>
<path d="M0 0 C2.99739756 1.74042439 3.88530089 2.60674592 4.875 6 C5 9 5 9 3 12 C2.34 12 1.68 12 1 12 C0.01 12.495 0.01 12.495 -1 13 C-0.67 12.01 -0.34 11.02 0 10 C0.04166002 7.6670386 0.04166002 5.3329614 0 3 C0 2.01 0 1.02 0 0 Z " fill="#A8A8A8" transform="translate(1349,499)"/>
<path d="M0 0 C0 0.99 0 1.98 0 3 C-1.40453643 3.89434157 -2.82421869 4.76493192 -4.25 5.625 C-5.03890625 6.11226562 -5.8278125 6.59953125 -6.640625 7.1015625 C-9 8 -9 8 -11.296875 7.1484375 C-11.85890625 6.76945313 -12.4209375 6.39046875 -13 6 C-11.21118264 4.99491199 -9.41885304 3.99607264 -7.625 3 C-6.62726563 2.443125 -5.62953125 1.88625 -4.6015625 1.3125 C-2 0 -2 0 0 0 Z " fill="#A3A3A3" transform="translate(1581,612)"/>
<path d="M0 0 C0.639375 0.804375 1.27875 1.60875 1.9375 2.4375 C3.40603502 4.2750504 3.40603502 4.2750504 5 6 C5.04063832 7.66617115 5.042721 9.33388095 5 11 C1.71211176 7.88983545 -0.83735988 4.98381075 -3 1 C-2.01 0.67 -1.02 0.34 0 0 Z " fill="#A6A6A6" transform="translate(1181,587)"/>
<path d="M0 0 C0.66 0.33 1.32 0.66 2 1 C1.01 4.63 0.02 8.26 -1 12 C-1.99 12 -2.98 12 -4 12 C-3.71905418 10.1858073 -3.42493567 8.37364999 -3.125 6.5625 C-2.96257812 5.55316406 -2.80015625 4.54382813 -2.6328125 3.50390625 C-2.42398437 2.67761719 -2.21515625 1.85132813 -2 1 C-1.34 0.67 -0.68 0.34 0 0 Z " fill="#A7A7A7" transform="translate(1665,307)"/>
<path d="M0 0 C2.64 0.33 5.28 0.66 8 1 C7.67 1.99 7.34 2.98 7 4 C4.36 3.67 1.72 3.34 -1 3 C-0.67 2.01 -0.34 1.02 0 0 Z " fill="#A9A9A9" transform="translate(1217,248)"/>
</svg>
