<svg xmlns="http://www.w3.org/2000/svg" viewBox="0 0 220 72" fill="none">
  <!-- T -->
  <path d="M 12,22 L 42,22" stroke="rgba(248,246,255,0.9)" stroke-width="2.2" stroke-linecap="round"/>
  <path d="M 27,22 C 27,36 28,50 30,63" stroke="rgba(248,246,255,0.9)" stroke-width="2.2" stroke-linecap="round"/>
  <!-- a -->
  <path d="M 54,62 L 54,40 C 54,32 58,27 65,27 C 72,27 75,33 75,40 C 75,48 71,54 65,55 C 58,56 54,52 54,48" stroke="rgba(248,246,255,0.9)" stroke-width="2.2" stroke-linecap="round"/>
  <!-- i -->
  <path d="M 84,34 L 84,62" stroke="rgba(248,246,255,0.9)" stroke-width="2.2" stroke-linecap="round"/>
  <circle cx="84" cy="27" r="2.5" fill="rgba(248,246,255,0.9)"/>
  <!-- s -->
  <path d="M 101,34 C 94,30 88,36 90,42 C 92,47 100,46 102,52 C 104,58 98,64 90,62" stroke="rgba(248,246,255,0.9)" stroke-width="2.2" stroke-linecap="round"/>
  <!-- e -->
  <path d="M 132,46 L 116,46 C 116,36 120,29 127,28 C 134,27 140,34 138,43 C 136,52 130,62 122,62 C 115,62 114,56 118,54" stroke="rgba(248,246,255,0.9)" stroke-width="2.2" stroke-linecap="round"/>
  <!-- i -->
  <path d="M 150,34 L 150,62" stroke="rgba(248,246,255,0.9)" stroke-width="2.2" stroke-linecap="round"/>
  <circle cx="150" cy="27" r="2.5" fill="rgba(248,246,255,0.9)"/>
  <!-- Decorative underline flourish -->
  <path d="M 10,70 C 50,75 100,74 150,70 C 175,68 195,70 210,72" stroke="rgba(208,161,255,0.55)" stroke-width="1.5" stroke-linecap="round"/>
</svg>
